<svg version="1.1" id="Layer_1" xmlns="http://www.w3.org/2000/svg" xmlns:xlink="http://www.w3.org/1999/xlink" x="0px" y="0px"
	 width="100%" viewBox="0 0 225 225" enable-background="new 0 0 225 225" xml:space="preserve">
<path fill="#121A27" opacity="1.000000" stroke="none" 
	d="
M124.000000,226.000000 
	C82.666672,226.000000 41.833340,226.000000 1.000005,226.000000 
	C1.000004,151.000000 1.000004,76.000015 1.000002,1.000015 
	C75.999992,1.000010 150.999985,1.000010 225.999969,1.000005 
	C225.999985,75.999985 225.999985,150.999969 226.000000,225.999969 
	C192.166672,226.000000 158.333328,226.000000 124.000000,226.000000 
M147.267059,60.039680 
	C146.724960,59.820541 146.182877,59.601402 145.722534,59.373501 
	C145.722534,59.373501 145.728012,59.455555 145.478699,58.804985 
	C141.001801,56.202873 136.524902,53.600765 131.600861,50.488144 
	C130.368668,50.022102 129.136475,49.556057 127.957886,49.000877 
	C127.957886,49.000877 127.926018,49.098827 127.694199,48.463177 
	C124.901245,46.904907 122.108299,45.346638 119.340942,43.285721 
	C118.989494,42.558598 118.611229,41.191326 118.290825,41.204758 
	C115.515472,41.321060 112.750526,41.685589 109.264221,42.063374 
	C105.704582,44.570068 102.144936,47.076763 98.555473,49.625648 
	C98.555473,49.625648 98.505844,49.611282 98.058975,49.658070 
	C97.764038,49.729958 97.513435,49.877197 96.834991,50.625954 
	C93.383629,52.639069 89.912674,54.619450 86.484474,56.671261 
	C74.969131,63.563290 63.469025,70.480774 51.638371,77.461800 
	C51.474873,77.612976 51.307152,77.759308 50.700916,78.428299 
	C50.422928,79.285439 50.144939,80.142578 49.272511,81.414215 
	C49.178162,85.419693 49.010399,89.425034 49.002499,93.430679 
	C48.972404,108.685806 48.959473,123.941208 49.033310,139.196045 
	C49.044353,141.477783 49.552856,143.757111 49.975662,146.502914 
	C49.975662,146.502914 50.083992,146.978714 49.927460,147.502335 
	C49.927460,149.241562 49.927460,150.980774 49.927460,152.896286 
	C52.824612,153.446198 55.608109,153.974533 58.315258,154.529785 
	C58.315258,154.529785 58.292179,154.452194 58.642349,154.957901 
	C59.181488,155.203094 59.720623,155.448303 60.044548,155.887817 
	C60.044548,155.887817 60.240490,155.673798 60.519779,156.285324 
	C61.497414,156.667175 62.475052,157.049026 63.528587,157.408234 
	C63.528587,157.408234 63.556393,157.482407 63.426399,158.135162 
	C63.849449,162.154297 67.100250,160.175842 69.166801,160.806305 
	C69.166801,160.806305 69.180473,160.856812 69.314522,161.529343 
	C72.585388,164.895981 75.825157,168.321045 81.022194,167.990219 
	C81.022194,167.990219 81.136848,167.819916 81.250427,168.373932 
	C83.800308,171.597839 86.504730,174.524612 91.347771,173.548218 
	C91.347771,173.548218 91.368454,173.664719 91.608665,174.267105 
	C92.555771,174.649323 93.502876,175.031525 94.387711,175.778351 
	C94.387711,175.778351 94.415443,175.409683 94.664406,175.945374 
	C95.335068,176.259064 96.005730,176.572739 97.106575,177.515167 
	C99.395027,178.407944 101.683479,179.300720 104.069862,180.627655 
	C104.404991,180.926895 104.740120,181.226151 105.476715,181.990952 
	C105.809952,182.229553 106.143188,182.468155 106.581841,182.499542 
	C106.581841,182.499542 106.791130,182.600800 106.872200,183.264496 
	C110.947441,189.367020 117.639420,188.654709 122.305885,181.160431 
	C124.394958,179.822693 126.484039,178.484940 129.218307,176.977661 
	C131.576492,175.655121 133.914230,174.294373 136.298355,173.020370 
	C138.894241,171.633179 141.533142,170.326492 144.833801,168.924088 
	C146.194458,167.936493 147.555130,166.948898 148.927643,165.905838 
	C148.927643,165.905838 148.980957,165.925262 149.722855,165.932144 
	C154.133987,164.280426 159.048752,163.350693 161.682098,158.000458 
	C164.830811,156.429489 168.049377,154.980499 171.097717,153.234344 
	C172.547623,152.403778 173.673264,151.007126 175.397125,149.708389 
	C175.397125,149.708389 175.799545,149.449982 176.276337,148.853806 
	C176.531128,147.565552 177.005371,146.277740 177.007935,144.988998 
	C177.049469,123.991280 177.086761,102.993065 176.936295,81.996300 
	C176.922089,80.013550 175.643311,78.039848 174.557404,75.684792 
	C174.107468,75.381447 173.657532,75.078094 172.718811,74.370407 
	C171.760803,74.030060 170.802811,73.689705 169.171326,73.102875 
	C166.675034,71.626923 164.178757,70.150963 161.589798,68.059814 
	C160.318619,67.504723 159.047440,66.949631 157.667770,66.415077 
	C157.667770,66.415077 157.643524,66.307335 157.428589,65.662300 
	C155.190536,64.541672 152.952469,63.421043 150.784790,62.288891 
	C150.784790,62.288891 150.781494,62.360126 150.507217,61.740295 
	C149.532471,61.347881 148.557709,60.955467 147.994843,60.044811 
	C147.855148,60.215260 147.715439,60.385708 147.267059,60.039680 
z"/>
<path fill="#9EEC0A" opacity="1.000000" stroke="none" 
	d="
M144.153290,168.984726 
	C141.533142,170.326492 138.894241,171.633179 136.298355,173.020370 
	C133.914230,174.294373 131.576492,175.655121 128.495468,177.072495 
	C124.926903,178.934357 122.081184,180.701385 119.187065,182.370758 
	C119.138664,182.273071 119.334717,182.177673 119.087372,182.291367 
	C118.558632,182.630890 118.277245,182.856720 118.025291,183.060211 
	C118.054733,183.037888 118.099228,183.096878 117.729477,183.036652 
	C114.535072,183.020996 111.710426,183.065552 108.919113,183.105728 
	C108.952454,183.101349 108.937164,183.166840 108.809036,182.854965 
	C107.111252,181.759888 105.541588,180.976700 103.971924,180.193481 
	C101.683479,179.300720 99.395027,178.407944 96.783302,176.948639 
	C95.778503,176.057983 95.096970,175.733826 94.415443,175.409683 
	C94.415443,175.409683 94.387711,175.778351 94.211174,175.371429 
	C93.145912,174.531250 92.257179,174.097977 91.368454,173.664719 
	C91.368454,173.664719 91.347771,173.548218 91.054214,173.337021 
	C87.552711,171.357193 84.344780,169.588562 81.136848,167.819916 
	C81.136848,167.819916 81.022194,167.990219 80.886375,167.636292 
	C76.893860,165.140518 73.037170,162.998657 69.180481,160.856812 
	C69.180473,160.856812 69.166801,160.806305 68.940277,160.558411 
	C66.994629,159.367813 65.275513,158.425110 63.556389,157.482407 
	C63.556393,157.482407 63.528587,157.408234 63.274353,157.195099 
	C62.093578,156.545898 61.167034,156.109848 60.240490,155.673798 
	C60.240490,155.673798 60.044548,155.887817 59.986240,155.542572 
	C59.382679,154.948959 58.837429,154.700577 58.292179,154.452194 
	C58.292179,154.452194 58.315258,154.529785 58.123062,154.282684 
	C55.932716,152.588196 53.934566,151.140793 51.953110,149.181458 
	C51.967564,124.909180 51.965328,101.148857 51.963097,77.388519 
	C63.469025,70.480774 74.969131,63.563290 86.484474,56.671261 
	C89.912674,54.619450 93.383629,52.639069 97.296051,50.369835 
	C98.086601,50.065708 98.336182,49.898232 98.505844,49.611282 
	C98.505844,49.611282 98.555473,49.625648 98.807495,49.542427 
	C99.520096,49.298069 99.980675,49.136932 100.795868,48.913734 
	C101.735847,48.448940 102.321228,48.046207 102.894989,47.734360 
	C102.883385,47.825241 102.701813,47.800545 102.945816,47.696838 
	C103.466217,47.376122 103.742622,47.159111 104.007576,46.973915 
	C103.996132,47.005730 103.934853,46.977139 104.236023,46.940052 
	C105.025543,46.561237 105.513901,46.219509 105.979111,45.921562 
	C105.955971,45.965343 105.868553,45.918766 106.175613,45.867455 
	C106.976135,45.452023 107.469604,45.087902 107.916809,44.792904 
	C107.870544,44.862026 107.732941,44.768547 108.128448,44.791283 
	C111.034355,44.191334 113.544754,43.568649 116.030167,42.964981 
	C116.005188,42.983994 116.015236,42.922024 116.168823,43.243500 
	C117.380852,44.016556 118.439278,44.468136 119.818588,44.978447 
	C122.734985,46.391068 125.330505,47.744946 127.926018,49.098827 
	C127.926018,49.098827 127.957886,49.000877 128.136078,49.299526 
	C129.526184,50.444878 130.738113,51.291580 132.113800,52.439209 
	C136.761063,54.978607 141.244537,57.217079 145.728012,59.455551 
	C145.728012,59.455555 145.722534,59.373501 145.861694,59.608353 
	C146.525803,60.080856 147.050781,60.318504 147.575745,60.556156 
	C147.715439,60.385708 147.855148,60.215260 147.999588,60.530540 
	C148.930054,61.464222 149.855774,61.912174 150.781494,62.360130 
	C150.781494,62.360126 150.784790,62.288891 150.949570,62.565788 
	C153.290741,63.997566 155.467133,65.152451 157.643524,66.307335 
	C157.643524,66.307335 157.667770,66.415077 157.897110,66.638054 
	C159.311783,67.465691 160.497131,68.070351 161.682465,68.675011 
	C164.178757,70.150963 166.675034,71.626923 169.505112,73.401482 
	C169.838898,73.700089 169.951599,74.035629 170.151917,74.269684 
	C170.724579,74.670288 171.096893,74.836845 171.510681,74.992287 
	C171.552124,74.981163 171.574646,75.063980 171.831207,75.272568 
	C172.472290,75.670334 172.856796,75.859512 173.375000,76.076904 
	C173.508667,76.105118 173.695770,76.304268 173.822327,76.553726 
	C174.322006,77.199364 174.695114,77.595558 175.038681,77.994675 
	C175.009140,77.997604 175.045700,77.950821 175.031555,78.422112 
	C174.993530,102.551239 174.969666,126.209076 174.945786,149.866913 
	C173.673264,151.007126 172.547623,152.403778 171.097717,153.234344 
	C168.049377,154.980499 164.830811,156.429489 160.970352,158.094635 
	C158.297287,159.524811 156.332687,160.856033 154.375626,162.198242 
	C152.573181,163.434433 150.778854,164.682449 148.980957,165.925262 
	C148.980957,165.925262 148.927643,165.905838 148.599426,165.970367 
	C146.898575,167.018158 145.525940,168.001450 144.153290,168.984726 
M93.915268,94.130562 
	C93.915268,94.130562 93.793861,94.174995 94.157326,94.686279 
	C94.735016,94.931442 95.312714,95.176613 95.856194,95.335739 
	C95.856194,95.335739 95.771141,95.372337 96.200378,95.857689 
	C97.749542,96.628082 99.298698,97.398476 100.991402,97.999390 
	C100.991402,97.999390 100.843498,98.167786 101.245346,98.677338 
	C102.394745,99.292892 103.544144,99.908440 104.730927,100.328766 
	C104.730927,100.328766 104.535172,100.294243 104.825150,100.782066 
	C105.169205,100.906227 105.513260,101.030380 105.897781,101.125443 
	C105.897781,101.125443 105.896446,101.175262 106.261452,101.632439 
	C106.799400,101.856560 107.337357,102.080673 107.859253,102.221886 
	C107.859253,102.221886 107.776718,102.239784 108.178993,102.774590 
	C110.173004,104.630920 112.163773,106.502510 115.662827,103.879860 
	C121.458206,100.642525 127.253578,97.405190 133.657715,94.056068 
	C133.925735,93.761414 134.193771,93.466759 134.274704,93.295212 
	C134.274704,93.295212 134.399750,93.481026 135.069534,93.247200 
	C138.439987,91.216209 141.810440,89.185211 145.059326,87.093361 
	C145.059326,87.093361 144.999176,87.215271 145.662476,87.079666 
	C145.972275,86.774590 146.282059,86.469505 147.052933,85.696815 
	C148.473724,84.903412 149.931137,84.168449 151.308319,83.305489 
	C155.203476,80.864670 155.202377,80.011520 151.314560,77.601936 
	C141.885056,71.757721 132.097992,66.413200 123.114555,59.950512 
	C115.694923,54.612835 109.739227,56.007912 102.809258,60.583611 
	C94.237404,66.243416 85.072800,70.999496 76.268890,76.319138 
	C74.588448,77.334526 73.393745,79.153801 71.974937,80.602196 
	C73.381058,81.813904 74.721046,83.116272 76.215752,84.206528 
	C77.271698,84.976753 78.537331,85.459511 80.002472,86.736435 
	C84.146942,88.991089 88.291420,91.245750 92.504234,93.487846 
	C92.504234,93.487846 92.483368,93.421555 92.863068,93.869095 
	C93.228264,93.996841 93.593468,94.124588 93.915268,94.130562 
M126.000801,113.983841 
	C126.000801,113.983841 126.036263,114.008751 125.453918,114.119568 
	C124.961845,114.432137 124.469772,114.744705 123.998123,114.992760 
	C123.998123,114.992760 124.060600,115.018761 123.262207,115.005325 
	C120.091438,115.159378 118.994370,117.052635 118.999840,119.971733 
	C119.026299,134.094971 118.936424,148.219757 119.168884,162.339371 
	C119.193916,163.859863 120.947563,166.491608 122.061562,166.580750 
	C123.635956,166.706757 125.361519,164.943710 127.022034,164.032745 
	C127.022034,164.032745 126.980003,164.017899 127.743568,164.061188 
	C129.114304,163.326584 130.485031,162.591965 132.163025,161.408554 
	C132.497086,161.283386 132.831146,161.158203 133.684921,160.935181 
	C134.109543,160.638245 134.534164,160.341324 135.165634,159.771347 
	C135.165634,159.771347 135.499603,159.695145 136.174408,159.631729 
	C136.717499,159.229279 137.260590,158.826828 137.703598,158.601730 
	C137.703598,158.601730 137.527878,158.498795 138.242569,158.518692 
	C140.133698,157.290039 142.024826,156.061386 144.389755,154.356430 
	C150.894791,150.526505 157.399826,146.696579 164.418167,142.243561 
	C164.567291,127.676270 164.749435,113.109055 164.782944,98.541496 
	C164.784943,97.673134 163.595871,96.802025 162.223022,95.867020 
	C160.319916,96.106346 158.126709,95.815315 156.561157,96.671722 
	C146.918686,101.946449 137.417831,107.480072 127.319061,113.037170 
	C126.879692,113.367172 126.440315,113.697166 126.000801,113.983841 
M104.889702,166.666565 
	C105.417641,166.432785 105.945572,166.198990 107.045105,165.345871 
	C107.336777,164.414688 107.878815,163.484512 107.882553,162.552170 
	C107.938316,148.676514 107.969131,134.800171 107.848404,120.925354 
	C107.837074,119.622864 106.764076,118.329613 105.615471,116.966225 
	C104.423698,116.373810 103.231918,115.781387 101.559517,114.639862 
	C90.033470,107.912956 78.507423,101.186050 66.630852,93.971779 
	C65.775192,94.063446 64.919525,94.155106 63.812035,94.586212 
	C63.592693,94.765938 63.353920,94.914398 62.590187,95.691582 
	C62.397808,96.487373 62.039989,97.282677 62.037682,98.079018 
	C61.998344,111.644058 61.969147,125.209427 62.049038,138.774063 
	C62.057289,140.175385 62.773300,141.572525 63.738342,143.308533 
	C66.108795,144.603668 68.479248,145.898804 71.253082,147.717499 
	C74.495407,149.487686 77.737724,151.257889 81.358238,153.593567 
	C83.764206,154.913422 86.170166,156.233261 88.654770,157.456772 
	C88.654770,157.456772 88.624054,157.577286 89.078346,158.029114 
	C91.349968,159.340424 93.621582,160.651718 96.576668,162.171387 
	C98.371101,163.179642 100.165535,164.187881 102.290642,165.763290 
	C103.045639,166.161163 103.800636,166.559036 104.889702,166.666565 
z"/>
<path fill="#2D5209" opacity="1.000000" stroke="none" 
	d="
M174.951660,76.061951 
	C175.643311,78.039848 176.922089,80.013550 176.936295,81.996300 
	C177.086761,102.993065 177.049469,123.991280 177.007935,144.988998 
	C177.005371,146.277740 176.531128,147.565552 176.067566,148.731674 
	C175.908783,126.118019 175.971954,103.626495 175.967560,81.134979 
	C175.967361,80.073532 175.366714,79.012207 175.045700,77.950821 
	C175.045700,77.950821 175.009140,77.997604 175.021652,77.725586 
	C174.884995,77.127197 174.735840,76.800827 174.677841,76.371262 
	C174.769012,76.268066 174.951645,76.061951 174.951660,76.061951 
z"/>
<path fill="#0B161A" opacity="1.000000" stroke="none" 
	d="
M49.831238,146.037552 
	C49.552856,143.757111 49.044353,141.477783 49.033310,139.196045 
	C48.959473,123.941208 48.972404,108.685806 49.002499,93.430679 
	C49.010399,89.425034 49.178162,85.419693 49.604424,81.674950 
	C49.901299,103.302971 49.866268,124.670265 49.831238,146.037552 
z"/>
<path fill="#A2DB38" opacity="1.000000" stroke="none" 
	d="
M175.031555,78.422112 
	C175.366714,79.012207 175.967361,80.073532 175.967560,81.134979 
	C175.971954,103.626495 175.908783,126.118019 175.829178,149.029755 
	C175.799545,149.449982 175.397125,149.708389 175.171448,149.787659 
	C174.969666,126.209076 174.993530,102.551239 175.031555,78.422112 
z"/>
<path fill="#A1DC2B" opacity="1.000000" stroke="none" 
	d="
M51.800735,77.425163 
	C51.965328,101.148857 51.967564,124.909180 51.679192,148.922180 
	C51.183208,148.468399 50.977833,147.761948 50.844254,146.588226 
	C50.989105,123.380882 51.062160,100.640839 51.135216,77.900795 
	C51.307152,77.759308 51.474873,77.612976 51.800735,77.425163 
z"/>
<path fill="#37570C" opacity="1.000000" stroke="none" 
	d="
M50.918064,78.164551 
	C51.062160,100.640839 50.989105,123.380882 50.671581,146.574036 
	C50.427113,147.027161 50.083992,146.978714 50.083992,146.978714 
	C50.083992,146.978714 49.975662,146.502914 49.903450,146.270233 
	C49.866268,124.670265 49.901299,103.302971 49.901642,81.467697 
	C50.144939,80.142578 50.422928,79.285439 50.918064,78.164551 
z"/>
<path fill="#172A0E" opacity="1.000000" stroke="none" 
	d="
M121.862061,181.668945 
	C117.639420,188.654709 110.947441,189.367020 107.104996,182.985779 
	C107.870911,182.860321 108.404037,183.013580 108.937164,183.166840 
	C108.937164,183.166840 108.952454,183.101349 109.133644,183.411102 
	C112.391731,185.607254 115.362335,185.997208 118.099228,183.096878 
	C118.099228,183.096878 118.054733,183.037888 118.325455,183.045578 
	C118.842361,182.761398 119.088539,182.469543 119.334717,182.177673 
	C119.334717,182.177673 119.138664,182.273071 119.531059,182.321899 
	C120.569656,182.136810 121.215858,181.902878 121.862061,181.668945 
z"/>
<path fill="#173309" opacity="1.000000" stroke="none" 
	d="
M145.603363,59.130268 
	C141.244537,57.217079 136.761063,54.978607 132.136810,52.154171 
	C132.013336,51.378357 132.030670,51.188507 132.048004,50.998657 
	C136.524902,53.600765 141.001801,56.202873 145.603363,59.130268 
z"/>
<path fill="#162E0D" opacity="1.000000" stroke="none" 
	d="
M69.247498,161.193069 
	C73.037170,162.998657 76.893860,165.140518 80.950249,167.555573 
	C75.825157,168.321045 72.585388,164.895981 69.247498,161.193069 
z"/>
<path fill="#1C3A0A" opacity="1.000000" stroke="none" 
	d="
M149.351898,165.928711 
	C150.778854,164.682449 152.573181,163.434433 154.375626,162.198242 
	C156.332687,160.856033 158.297287,159.524811 160.604218,158.144714 
	C159.048752,163.350693 154.133987,164.280426 149.351898,165.928711 
z"/>
<path fill="#162E0D" opacity="1.000000" stroke="none" 
	d="
M50.005726,147.240524 
	C50.083992,146.978714 50.427113,147.027161 50.599785,147.041336 
	C50.977833,147.761948 51.183208,148.468399 51.662502,149.434113 
	C53.934566,151.140793 55.932716,152.588196 58.161236,154.269241 
	C55.608109,153.974533 52.824612,153.446198 49.927460,152.896286 
	C49.927460,150.980774 49.927460,149.241562 50.005726,147.240524 
z"/>
<path fill="#162E0D" opacity="1.000000" stroke="none" 
	d="
M81.193634,168.096924 
	C84.344780,169.588562 87.552711,171.357193 90.995636,173.345367 
	C86.504730,174.524612 83.800308,171.597839 81.193634,168.096924 
z"/>
<path fill="#142E0A" opacity="1.000000" stroke="none" 
	d="
M100.441254,48.975792 
	C99.980675,49.136932 99.520096,49.298069 98.822403,49.521332 
	C102.144936,47.076763 105.704582,44.570068 109.739365,42.155350 
	C110.214516,42.247322 110.446831,42.518185 110.234314,42.724701 
	C109.258842,43.543659 108.495895,44.156105 107.732941,44.768547 
	C107.732941,44.768547 107.870544,44.862026 107.594719,44.813675 
	C106.835449,45.149807 106.352005,45.534290 105.868553,45.918770 
	C105.868553,45.918766 105.955971,45.965343 105.665573,45.917351 
	C104.895065,46.238617 104.414955,46.607876 103.934853,46.977139 
	C103.934853,46.977139 103.996132,47.005730 103.715134,46.989883 
	C103.190033,47.249542 102.945923,47.525043 102.701813,47.800545 
	C102.701813,47.800545 102.883385,47.825241 102.521576,47.747147 
	C101.586937,48.104630 101.014091,48.540211 100.441254,48.975792 
z"/>
<path fill="#99D72D" opacity="1.000000" stroke="none" 
	d="
M122.083969,181.414673 
	C121.215858,181.902878 120.569656,182.136810 119.579460,182.419586 
	C122.081184,180.701385 124.926903,178.934357 128.172882,177.157257 
	C126.484039,178.484940 124.394958,179.822693 122.083969,181.414673 
z"/>
<path fill="#142E0A" opacity="1.000000" stroke="none" 
	d="
M127.810104,48.781002 
	C125.330505,47.744946 122.734985,46.391068 119.715851,44.735001 
	C119.198082,44.284801 119.103943,44.136784 119.085144,43.937065 
	C119.160469,43.885357 119.315346,43.788372 119.315346,43.788372 
	C122.108299,45.346638 124.901245,46.904907 127.810104,48.781002 
z"/>
<path fill="#142E0A" opacity="1.000000" stroke="none" 
	d="
M110.098495,42.111767 
	C112.750526,41.685589 115.515472,41.321060 118.290825,41.204758 
	C118.611229,41.191326 118.989494,42.558598 119.328140,43.537048 
	C119.315346,43.788372 119.160469,43.885357 118.770782,43.864647 
	C117.592468,43.536633 116.803856,43.229328 116.015236,42.922024 
	C116.015236,42.922024 116.005188,42.983994 115.781799,42.688904 
	C113.854553,42.435272 112.150688,42.476727 110.446831,42.518185 
	C110.446831,42.518185 110.214516,42.247322 110.098495,42.111767 
z"/>
<path fill="#162E0D" opacity="1.000000" stroke="none" 
	d="
M63.491394,157.808777 
	C65.275513,158.425110 66.994629,159.367813 68.914719,160.564026 
	C67.100250,160.175842 63.849449,162.154297 63.491394,157.808777 
z"/>
<path fill="#173309" opacity="1.000000" stroke="none" 
	d="
M157.536057,65.984818 
	C155.467133,65.152451 153.290741,63.997566 150.914383,62.571548 
	C152.952469,63.421043 155.190536,64.541672 157.536057,65.984818 
z"/>
<path fill="#99D72D" opacity="1.000000" stroke="none" 
	d="
M108.809036,182.854965 
	C108.404037,183.013580 107.870911,182.860321 107.064453,182.653931 
	C106.791130,182.600800 106.581841,182.499542 106.382896,182.315460 
	C105.814384,181.929367 105.444817,181.727371 105.075249,181.525391 
	C104.740120,181.226151 104.404991,180.926895 104.020889,180.410583 
	C105.541588,180.976700 107.111252,181.759888 108.809036,182.854965 
z"/>
<path fill="#1C3A0A" opacity="1.000000" stroke="none" 
	d="
M144.493546,168.954407 
	C145.525940,168.001450 146.898575,167.018158 148.593506,165.998108 
	C147.555130,166.948898 146.194458,167.936493 144.493546,168.954407 
z"/>
<path fill="#142E0A" opacity="1.000000" stroke="none" 
	d="
M131.824432,50.743401 
	C132.030670,51.188507 132.013336,51.378357 131.973022,51.853245 
	C130.738113,51.291580 129.526184,50.444878 128.109268,49.344093 
	C129.136475,49.556057 130.368668,50.022102 131.824432,50.743401 
z"/>
<path fill="#173309" opacity="1.000000" stroke="none" 
	d="
M161.636139,68.367416 
	C160.497131,68.070351 159.311783,67.465691 157.951355,66.627777 
	C159.047440,66.949631 160.318619,67.504723 161.636139,68.367416 
z"/>
<path fill="#162E0D" opacity="1.000000" stroke="none" 
	d="
M91.488556,173.965912 
	C92.257179,174.097977 93.145912,174.531250 94.242310,175.189117 
	C93.502876,175.031525 92.555771,174.649323 91.488556,173.965912 
z"/>
<path fill="#162E0D" opacity="1.000000" stroke="none" 
	d="
M60.380135,155.979553 
	C61.167034,156.109848 62.093578,156.545898 63.236404,157.206421 
	C62.475052,157.049026 61.497414,156.667175 60.380135,155.979553 
z"/>
<path fill="#2D5209" opacity="1.000000" stroke="none" 
	d="
M171.574646,75.063980 
	C171.574646,75.063980 171.552124,74.981163 171.324249,74.739853 
	C170.714767,74.344231 170.333191,74.189934 169.951599,74.035629 
	C169.951599,74.035629 169.838898,73.700089 169.841858,73.524719 
	C170.802811,73.689705 171.760803,74.030060 172.862152,74.682846 
	C173.005508,74.995293 172.804214,75.214615 172.496582,75.178802 
	C171.984192,75.116653 171.779419,75.090317 171.574646,75.063980 
z"/>
<path fill="#173309" opacity="1.000000" stroke="none" 
	d="
M150.644348,62.050213 
	C149.855774,61.912174 148.930054,61.464222 147.793640,60.789665 
	C148.557709,60.955467 149.532471,61.347881 150.644348,62.050213 
z"/>
<path fill="#162E0D" opacity="1.000000" stroke="none" 
	d="
M94.539925,175.677521 
	C95.096970,175.733826 95.778503,176.057983 96.568207,176.634277 
	C96.005730,176.572739 95.335068,176.259064 94.539925,175.677521 
z"/>
<path fill="#162E0D" opacity="1.000000" stroke="none" 
	d="
M58.467262,154.705048 
	C58.837429,154.700577 59.382679,154.948959 60.093849,155.445404 
	C59.720623,155.448303 59.181488,155.203094 58.467262,154.705048 
z"/>
<path fill="#2D5209" opacity="1.000000" stroke="none" 
	d="
M173.695770,76.304268 
	C173.695770,76.304268 173.508667,76.105118 173.268433,75.866318 
	C173.028214,75.627510 172.804214,75.214615 172.804214,75.214615 
	C172.804214,75.214615 173.005508,74.995293 173.106552,74.885025 
	C173.657532,75.078094 174.107468,75.381447 174.754517,75.873367 
	C174.951645,76.061951 174.769012,76.268066 174.455627,76.325989 
	C174.142242,76.383911 173.695770,76.304268 173.695770,76.304268 
z"/>
<path fill="#173309" opacity="1.000000" stroke="none" 
	d="
M147.421402,60.297920 
	C147.050781,60.318504 146.525803,60.080856 145.820801,59.612736 
	C146.182877,59.601402 146.724960,59.820541 147.421402,60.297920 
z"/>
<path fill="#172A0E" opacity="1.000000" stroke="none" 
	d="
M105.275986,181.758179 
	C105.444817,181.727371 105.814384,181.929367 106.330185,182.419067 
	C106.143188,182.468155 105.809952,182.229553 105.275986,181.758179 
z"/>
<path fill="#142E0A" opacity="1.000000" stroke="none" 
	d="
M98.282410,49.634674 
	C98.336182,49.898232 98.086601,50.065708 97.532135,50.106750 
	C97.513435,49.877197 97.764038,49.729958 98.282410,49.634674 
z"/>
<path fill="#121B25" opacity="1.000000" stroke="none" 
	d="
M133.048950,94.167862 
	C127.253578,97.405190 121.458206,100.642525 114.981117,103.975685 
	C112.125175,103.460938 109.950951,102.850357 107.776718,102.239784 
	C107.776718,102.239784 107.859253,102.221886 107.674866,102.036819 
	C106.959137,101.626259 106.427795,101.400757 105.896446,101.175262 
	C105.896446,101.175262 105.897781,101.125443 105.687981,100.958435 
	C105.163841,100.625710 104.849510,100.459976 104.535172,100.294243 
	C104.535172,100.294243 104.730927,100.328766 104.584549,100.094025 
	C103.239937,99.295448 102.041718,98.731621 100.843498,98.167786 
	C100.843498,98.167786 100.991402,97.999390 100.850471,97.777634 
	C99.063408,96.828026 97.417274,96.100182 95.771141,95.372337 
	C95.771141,95.372337 95.856194,95.335739 95.668716,95.134277 
	C94.918777,94.680206 94.356323,94.427605 93.793861,94.174995 
	C93.793861,94.174995 93.915268,94.130562 93.717896,94.007637 
	C93.174805,93.730324 92.829086,93.575943 92.483368,93.421555 
	C92.483368,93.421555 92.504234,93.487846 92.476212,93.176590 
	C88.201904,90.600418 83.955627,88.335510 79.709351,86.070610 
	C78.537331,85.459511 77.271698,84.976753 76.215752,84.206528 
	C74.721046,83.116272 73.381058,81.813904 71.974937,80.602196 
	C73.393745,79.153801 74.588448,77.334526 76.268890,76.319138 
	C85.072800,70.999496 94.237404,66.243416 102.809258,60.583611 
	C109.739227,56.007912 115.694923,54.612835 123.114555,59.950512 
	C132.097992,66.413200 141.885056,71.757721 151.314560,77.601936 
	C155.202377,80.011520 155.203476,80.864670 151.308319,83.305489 
	C149.931137,84.168449 148.473724,84.903412 146.539368,86.076202 
	C145.683609,86.708817 145.341385,86.962044 144.999176,87.215271 
	C144.999176,87.215271 145.059326,87.093361 144.751007,87.117691 
	C142.298126,88.088959 140.153564,89.035896 137.921234,89.904167 
	C137.713837,89.759216 137.594193,89.692917 137.474533,89.626625 
	C137.642548,89.757492 137.810547,89.888367 137.697327,90.204536 
	C136.410629,91.420235 135.405182,92.450630 134.399750,93.481018 
	C134.399750,93.481026 134.274704,93.295212 134.115601,93.378494 
	C133.653976,93.697136 133.351471,93.932503 133.048950,94.167862 
M142.066879,82.745743 
	C142.121155,83.261253 142.175446,83.776756 142.229721,84.292259 
	C142.525299,84.216248 142.820877,84.140236 143.116455,84.064232 
	C142.912018,83.587929 142.707581,83.111626 142.066879,82.745743 
M132.504272,90.524887 
	C132.504272,90.524887 132.489960,90.484772 132.504272,90.524887 
z"/>
<path fill="#121B25" opacity="1.000000" stroke="none" 
	d="
M127.869888,112.927612 
	C137.417831,107.480072 146.918686,101.946449 156.561157,96.671722 
	C158.126709,95.815315 160.319916,96.106346 162.724426,96.289841 
	C163.432419,99.133713 163.639008,101.554756 163.666992,104.350471 
	C163.574524,117.152702 163.660645,129.580261 163.790588,142.221756 
	C163.834381,142.435684 163.904877,142.866669 163.904877,142.866669 
	C157.399826,146.696579 150.894791,150.526505 143.792618,154.646088 
	C141.306274,156.123428 139.417068,157.311111 137.527863,158.498779 
	C137.527878,158.498795 137.703598,158.601730 137.415497,158.585495 
	C136.584808,158.944550 136.042206,159.319855 135.499603,159.695145 
	C135.499603,159.695145 135.165634,159.771347 134.797607,159.931519 
	C134.008133,160.405457 133.586670,160.719254 133.165207,161.033051 
	C132.831146,161.158203 132.497086,161.283386 131.674240,161.706070 
	C129.783630,162.675018 128.381821,163.346451 126.980003,164.017883 
	C126.980003,164.017899 127.022034,164.032745 126.687904,164.051025 
	C124.935814,164.064636 123.517853,164.059937 121.974777,163.752045 
	C121.627060,162.626007 121.404449,161.803192 121.348793,160.606293 
	C121.681992,150.766724 121.949341,141.301392 121.966179,131.835617 
	C121.973198,127.886337 121.447220,123.936104 121.107864,119.591537 
	C121.004951,118.663887 120.957771,118.130997 121.101021,117.372620 
	C122.214500,116.437668 123.137550,115.728218 124.060600,115.018761 
	C124.060600,115.018761 123.998123,114.992760 124.288071,114.997475 
	C125.064110,114.671043 125.550186,114.339897 126.036263,114.008751 
	C126.036263,114.008751 126.000801,113.983841 126.280670,113.972702 
	C126.996986,113.616920 127.433441,113.272270 127.869888,112.927612 
z"/>
<path fill="#121B26" opacity="1.000000" stroke="none" 
	d="
M63.095711,95.031601 
	C63.353920,94.914398 63.592693,94.765938 64.306656,94.412941 
	C65.527969,94.312836 66.254677,94.385994 66.981377,94.459152 
	C78.507423,101.186050 90.033470,107.912956 101.913551,115.245613 
	C103.179756,118.898132 104.769081,121.920845 104.878288,124.996132 
	C105.218193,134.568512 104.931168,144.161530 105.035202,153.744949 
	C105.065208,156.508636 105.594421,159.266922 106.084061,162.094330 
	C106.273354,162.160980 106.670097,162.218765 106.676376,162.475220 
	C106.655846,163.072327 106.629044,163.412979 106.310699,163.822357 
	C105.346260,164.603500 104.673355,165.315918 103.713387,165.980011 
	C102.937538,165.686508 102.448753,165.441330 101.959969,165.196136 
	C100.165535,164.187881 98.371101,163.179642 96.307831,161.788025 
	C95.739380,157.783447 92.228302,155.971115 88.624054,157.577286 
	C88.624054,157.577286 88.654770,157.456772 88.597473,157.187256 
	C88.313568,154.250549 88.086945,151.583374 87.872246,149.056503 
	C85.603951,149.723083 83.293617,150.402008 80.798813,150.976562 
	C78.850723,145.687210 74.450417,147.501907 70.849701,147.193939 
	C68.479248,145.898804 66.108795,144.603668 63.411430,142.711014 
	C63.098003,140.398788 63.111492,138.684082 63.314133,136.605774 
	C63.668270,128.779388 63.980492,121.316040 63.951565,113.854019 
	C63.928493,107.903343 63.489498,101.954292 63.186935,95.763199 
	C63.138744,95.521881 63.095711,95.031601 63.095711,95.031601 
z"/>
<path fill="#031606" opacity="1.000000" stroke="none" 
	d="
M105.894760,162.027679 
	C105.594421,159.266922 105.065208,156.508636 105.035202,153.744949 
	C104.931168,144.161530 105.218193,134.568512 104.878288,124.996132 
	C104.769081,121.920845 103.179756,118.898132 102.153870,115.520164 
	C103.231918,115.781387 104.423698,116.373810 105.938576,117.360596 
	C106.385277,118.457680 106.508873,119.160393 106.500992,119.997284 
	C106.456688,120.466995 106.543839,120.802513 106.632553,121.597885 
	C106.632553,134.992172 106.630997,147.926605 106.464600,161.024963 
	C106.160255,161.466293 106.025253,161.745895 105.894760,162.027679 
z"/>
<path fill="#9DD932" opacity="1.000000" stroke="none" 
	d="
M122.099899,164.055252 
	C123.517853,164.059937 124.935814,164.064636 126.688118,164.028748 
	C125.361519,164.943710 123.635956,166.706757 122.061562,166.580750 
	C120.947563,166.491608 119.193916,163.859863 119.168884,162.339371 
	C118.936424,148.219757 119.026299,134.094971 118.999840,119.971733 
	C118.994370,117.052635 120.091438,115.159378 123.661407,115.012039 
	C123.137550,115.728218 122.214500,116.437668 120.843643,117.689133 
	C120.388992,119.531136 120.382164,120.831139 120.355988,122.551544 
	C120.349297,124.935410 120.361931,126.898872 120.252930,129.327148 
	C120.212402,137.568237 120.293518,145.344513 120.355576,153.540756 
	C120.349747,155.921097 120.362991,157.881500 120.260658,160.198425 
	C120.796684,161.721741 121.448288,162.888489 122.099899,164.055252 
z"/>
<path fill="#A0DC2E" opacity="1.000000" stroke="none" 
	d="
M106.629440,160.861038 
	C106.630997,147.926605 106.632553,134.992172 106.725006,121.279282 
	C106.754745,120.288239 106.693604,120.075668 106.632462,119.863098 
	C106.508873,119.160393 106.385277,118.457680 106.222839,117.393524 
	C106.764076,118.329613 107.837074,119.622864 107.848404,120.925354 
	C107.969131,134.800171 107.938316,148.676514 107.882553,162.552170 
	C107.878815,163.484512 107.336777,164.414688 106.840599,165.287781 
	C106.624809,164.737656 106.613525,164.245636 106.602242,163.753616 
	C106.629044,163.412979 106.655846,163.072327 106.752670,162.132584 
	C106.758278,161.309341 106.693863,161.085190 106.629440,160.861038 
z"/>
<path fill="#99C537" opacity="1.000000" stroke="none" 
	d="
M163.845612,103.975807 
	C163.639008,101.554756 163.432419,99.133713 163.093430,96.322426 
	C163.595871,96.802025 164.784943,97.673134 164.782944,98.541496 
	C164.749435,113.109055 164.567291,127.676270 164.161530,142.555115 
	C163.904877,142.866669 163.834381,142.435684 163.892822,141.759659 
	C163.916046,128.714355 163.880829,116.345085 163.845612,103.975807 
z"/>
<path fill="#97CA2C" opacity="1.000000" stroke="none" 
	d="
M62.842949,95.361588 
	C63.095711,95.031601 63.138744,95.521881 63.095627,96.226341 
	C63.076664,110.276993 63.100822,123.623184 63.124977,136.969376 
	C63.111492,138.684082 63.098003,140.398788 63.122715,142.542542 
	C62.773300,141.572525 62.057289,140.175385 62.049038,138.774063 
	C61.969147,125.209427 61.998344,111.644058 62.037682,98.079018 
	C62.039989,97.282677 62.397808,96.487373 62.842949,95.361588 
z"/>
<path fill="#14231B" opacity="1.000000" stroke="none" 
	d="
M80.983284,151.080933 
	C83.293617,150.402008 85.603951,149.723083 87.872246,149.056503 
	C88.086945,151.583374 88.313568,154.250549 88.558151,157.235428 
	C86.170166,156.233261 83.764206,154.913422 81.172348,152.985870 
	C80.985405,151.945755 80.984344,151.513336 80.983284,151.080933 
z"/>
<path fill="#132316" opacity="1.000000" stroke="none" 
	d="
M80.798813,150.976547 
	C80.984344,151.513336 80.985405,151.945755 80.983253,152.703125 
	C77.737724,151.257889 74.495407,149.487686 71.051392,147.455719 
	C74.450417,147.501907 78.850723,145.687210 80.798813,150.976547 
z"/>
<path fill="#13280F" opacity="1.000000" stroke="none" 
	d="
M79.855911,86.403519 
	C83.955627,88.335510 88.201904,90.600418 92.442032,93.182861 
	C88.291420,91.245750 84.146942,88.991089 79.855911,86.403519 
z"/>
<path fill="#14231B" opacity="1.000000" stroke="none" 
	d="
M88.851196,157.803192 
	C92.228302,155.971115 95.739380,157.783447 95.966103,161.683853 
	C93.621582,160.651718 91.349968,159.340424 88.851196,157.803192 
z"/>
<path fill="#112016" opacity="1.000000" stroke="none" 
	d="
M138.008987,89.982819 
	C140.153564,89.035896 142.298126,88.088959 144.811798,87.148125 
	C141.810440,89.185211 138.439987,91.216209 134.734650,93.364105 
	C135.405182,92.450630 136.410629,91.420235 137.706253,90.196152 
	C137.996429,90.002472 138.008987,89.982819 138.008987,89.982819 
z"/>
<path fill="#99D72D" opacity="1.000000" stroke="none" 
	d="
M117.729477,183.036652 
	C115.362335,185.997208 112.391731,185.607254 109.100311,183.415466 
	C111.710426,183.065552 114.535072,183.020996 117.729477,183.036652 
z"/>
<path fill="#98D236" opacity="1.000000" stroke="none" 
	d="
M110.234314,42.724701 
	C112.150688,42.476727 113.854553,42.435272 115.806778,42.669891 
	C113.544754,43.568649 111.034355,44.191334 108.128448,44.791283 
	C108.495895,44.156105 109.258842,43.543659 110.234314,42.724701 
z"/>
<path fill="#13280F" opacity="1.000000" stroke="none" 
	d="
M107.977859,102.507187 
	C109.950951,102.850357 112.125175,103.460938 114.667473,104.152481 
	C112.163773,106.502510 110.173004,104.630920 107.977859,102.507187 
z"/>
<path fill="#9DD932" opacity="1.000000" stroke="none" 
	d="
M137.885223,158.508728 
	C139.417068,157.311111 141.306274,156.123428 143.555725,154.884247 
	C142.024826,156.061386 140.133698,157.290039 137.885223,158.508728 
z"/>
<path fill="#13280F" opacity="1.000000" stroke="none" 
	d="
M95.985764,95.615013 
	C97.417274,96.100182 99.063408,96.828026 100.778702,97.862373 
	C99.298698,97.398476 97.749542,96.628082 95.985764,95.615013 
z"/>
<path fill="#476B15" opacity="1.000000" stroke="none" 
	d="
M106.310699,163.822357 
	C106.613525,164.245636 106.624809,164.737656 106.554802,165.597443 
	C105.945572,166.198990 105.417641,166.432785 104.591667,166.574295 
	C104.195900,166.330795 104.098175,166.179581 104.000458,166.028351 
	C104.673355,165.315918 105.346260,164.603500 106.310699,163.822357 
z"/>
<path fill="#9DD932" opacity="1.000000" stroke="none" 
	d="
M127.361786,164.039536 
	C128.381821,163.346451 129.783630,162.675018 131.520615,161.930481 
	C130.485031,162.591965 129.114304,163.326584 127.361786,164.039536 
z"/>
<path fill="#13280F" opacity="1.000000" stroke="none" 
	d="
M101.044418,98.422562 
	C102.041718,98.731621 103.239937,99.295448 104.565857,100.191635 
	C103.544144,99.908440 102.394745,99.292892 101.044418,98.422562 
z"/>
<path fill="#98D236" opacity="1.000000" stroke="none" 
	d="
M116.168823,43.243500 
	C116.803856,43.229328 117.592468,43.536633 118.695450,43.916351 
	C119.103943,44.136784 119.198082,44.284801 119.394974,44.676266 
	C118.439278,44.468136 117.380852,44.016556 116.168823,43.243500 
z"/>
<path fill="#97CA2C" opacity="1.000000" stroke="none" 
	d="
M66.806114,94.215469 
	C66.254677,94.385994 65.527969,94.312836 64.432571,94.243225 
	C64.919525,94.155106 65.775192,94.063446 66.806114,94.215469 
z"/>
<path fill="#A0DC2E" opacity="1.000000" stroke="none" 
	d="
M103.713394,165.980011 
	C104.098175,166.179581 104.195900,166.330795 104.424637,166.719467 
	C103.800636,166.559036 103.045639,166.161163 102.125305,165.479706 
	C102.448753,165.441330 102.937538,165.686508 103.713394,165.980011 
z"/>
<path fill="#9DD932" opacity="1.000000" stroke="none" 
	d="
M135.837006,159.663437 
	C136.042206,159.319855 136.584808,158.944550 137.465546,158.496826 
	C137.260590,158.826828 136.717499,159.229279 135.837006,159.663437 
z"/>
<path fill="#9DD932" opacity="1.000000" stroke="none" 
	d="
M133.425064,160.984116 
	C133.586670,160.719254 134.008133,160.405457 134.694183,160.068024 
	C134.534164,160.341324 134.109543,160.638245 133.425064,160.984116 
z"/>
<path fill="#98D236" opacity="1.000000" stroke="none" 
	d="
M106.175613,45.867455 
	C106.352005,45.534290 106.835449,45.149807 107.640984,44.744553 
	C107.469604,45.087902 106.976135,45.452023 106.175613,45.867455 
z"/>
<path fill="#98D236" opacity="1.000000" stroke="none" 
	d="
M104.236023,46.940052 
	C104.414955,46.607876 104.895065,46.238617 105.688713,45.873566 
	C105.513901,46.219509 105.025543,46.561237 104.236023,46.940052 
z"/>
<path fill="#9DD932" opacity="1.000000" stroke="none" 
	d="
M125.745087,114.064163 
	C125.550186,114.339897 125.064110,114.671043 124.277863,115.029732 
	C124.469772,114.744705 124.961845,114.432137 125.745087,114.064163 
z"/>
<path fill="#9DD932" opacity="1.000000" stroke="none" 
	d="
M127.594482,112.982391 
	C127.433441,113.272270 126.996986,113.616920 126.280739,113.994370 
	C126.440315,113.697166 126.879692,113.367172 127.594482,112.982391 
z"/>
<path fill="#13280F" opacity="1.000000" stroke="none" 
	d="
M106.078949,101.403854 
	C106.427795,101.400757 106.959137,101.626259 107.682899,102.078270 
	C107.337357,102.080673 106.799400,101.856560 106.078949,101.403854 
z"/>
<path fill="#A2DB38" opacity="1.000000" stroke="none" 
	d="
M173.822327,76.553726 
	C173.695770,76.304268 174.142242,76.383911 174.364456,76.429184 
	C174.735840,76.800827 174.884995,77.127197 175.051193,77.722664 
	C174.695114,77.595558 174.322006,77.199364 173.822327,76.553726 
z"/>
<path fill="#98D236" opacity="1.000000" stroke="none" 
	d="
M100.795868,48.913734 
	C101.014091,48.540211 101.586937,48.104630 102.533188,47.656261 
	C102.321228,48.046207 101.735847,48.448940 100.795868,48.913734 
z"/>
<path fill="#13280F" opacity="1.000000" stroke="none" 
	d="
M93.975594,94.430634 
	C94.356323,94.427605 94.918777,94.680206 95.685822,95.177299 
	C95.312714,95.176613 94.735016,94.931442 93.975594,94.430634 
z"/>
<path fill="#A2DB38" opacity="1.000000" stroke="none" 
	d="
M172.496582,75.178802 
	C172.804214,75.214615 173.028214,75.627510 173.134766,75.838104 
	C172.856796,75.859512 172.472290,75.670334 171.831207,75.272568 
	C171.779419,75.090317 171.984192,75.116653 172.496582,75.178802 
z"/>
<path fill="#99D72D" opacity="1.000000" stroke="none" 
	d="
M119.087372,182.291367 
	C119.088539,182.469543 118.842361,182.761398 118.296013,183.067902 
	C118.277245,182.856720 118.558632,182.630890 119.087372,182.291367 
z"/>
<path fill="#112016" opacity="1.000000" stroke="none" 
	d="
M145.330826,87.147469 
	C145.341385,86.962044 145.683609,86.708817 146.308838,86.310013 
	C146.282059,86.469505 145.972275,86.774590 145.330826,87.147469 
z"/>
<path fill="#13280F" opacity="1.000000" stroke="none" 
	d="
M92.673218,93.645325 
	C92.829086,93.575943 93.174805,93.730324 93.739594,94.068527 
	C93.593468,94.124588 93.228264,93.996841 92.673218,93.645325 
z"/>
<path fill="#112016" opacity="1.000000" stroke="none" 
	d="
M133.353333,94.111969 
	C133.351471,93.932503 133.653976,93.697136 134.209137,93.316940 
	C134.193771,93.466759 133.925735,93.761414 133.353333,94.111969 
z"/>
<path fill="#98D236" opacity="1.000000" stroke="none" 
	d="
M102.945816,47.696838 
	C102.945923,47.525043 103.190033,47.249542 103.726578,46.958069 
	C103.742622,47.159111 103.466217,47.376122 102.945816,47.696838 
z"/>
<path fill="#13280F" opacity="1.000000" stroke="none" 
	d="
M104.680161,100.538155 
	C104.849510,100.459976 105.163841,100.625710 105.667747,100.972992 
	C105.513260,101.030380 105.169205,100.906227 104.680161,100.538155 
z"/>
<path fill="#A2DB38" opacity="1.000000" stroke="none" 
	d="
M170.151917,74.269684 
	C170.333191,74.189934 170.714767,74.344231 171.282791,74.750977 
	C171.096893,74.836845 170.724579,74.670288 170.151917,74.269684 
z"/>
<path fill="#112016" opacity="1.000000" stroke="none" 
	d="
M142.285004,82.690536 
	C142.707581,83.111626 142.912018,83.587929 143.116455,84.064224 
	C142.820877,84.140236 142.525299,84.216248 142.229721,84.292267 
	C142.175446,83.776756 142.121155,83.261253 142.285004,82.690536 
z"/>
<path fill="#112016" opacity="1.000000" stroke="none" 
	d="
M137.987488,90.010849 
	C137.810547,89.888367 137.642548,89.757492 137.474533,89.626625 
	C137.594193,89.692917 137.713837,89.759216 137.921234,89.904160 
	C138.008987,89.982819 137.996429,90.002472 137.987488,90.010849 
z"/>
<path fill="#112016" opacity="1.000000" stroke="none" 
	d="
M132.497116,90.504829 
	C132.489960,90.484772 132.504272,90.524887 132.497116,90.504829 
z"/>
<path fill="#08130E" opacity="1.000000" stroke="none" 
	d="
M120.374565,128.862335 
	C120.361931,126.898872 120.349297,124.935410 120.526794,122.317352 
	C120.865822,121.103943 121.014709,120.545128 121.163589,119.986305 
	C121.447220,123.936104 121.973198,127.886337 121.966179,131.835617 
	C121.949341,141.301392 121.681992,150.766724 121.238060,160.398605 
	C120.843300,160.261246 120.648582,160.020203 120.376236,159.841888 
	C120.362991,157.881500 120.349747,155.921097 120.525467,153.157684 
	C120.601135,144.523880 120.487854,136.693100 120.374565,128.862335 
z"/>
<path fill="#000802" opacity="1.000000" stroke="none" 
	d="
M163.666992,104.350471 
	C163.880829,116.345085 163.916046,128.714355 163.849030,141.545731 
	C163.660645,129.580261 163.574524,117.152702 163.666992,104.350471 
z"/>
<path fill="#3E6811" opacity="1.000000" stroke="none" 
	d="
M120.260651,160.198425 
	C120.648582,160.020203 120.843300,160.261246 121.071106,160.772675 
	C121.404449,161.803192 121.627060,162.626007 121.974785,163.752045 
	C121.448288,162.888489 120.796684,161.721741 120.260651,160.198425 
z"/>
<path fill="#3E6811" opacity="1.000000" stroke="none" 
	d="
M121.107864,119.591537 
	C121.014709,120.545128 120.865822,121.103943 120.546127,121.896950 
	C120.382164,120.831139 120.388992,119.531136 120.653214,117.914627 
	C120.957771,118.130997 121.004951,118.663887 121.107864,119.591537 
z"/>
<path fill="#000600" opacity="1.000000" stroke="none" 
	d="
M63.314133,136.605774 
	C63.100822,123.623184 63.076664,110.276993 63.143822,96.467659 
	C63.489498,101.954292 63.928493,107.903343 63.951565,113.854019 
	C63.980492,121.316040 63.668270,128.779388 63.314133,136.605774 
z"/>
<path fill="#476B15" opacity="1.000000" stroke="none" 
	d="
M106.464600,161.024963 
	C106.693863,161.085190 106.758278,161.309341 106.746391,161.876129 
	C106.670097,162.218765 106.273354,162.160980 106.084053,162.094330 
	C106.025253,161.745895 106.160255,161.466293 106.464600,161.024963 
z"/>
<path fill="#476B15" opacity="1.000000" stroke="none" 
	d="
M106.500992,119.997284 
	C106.693604,120.075668 106.754745,120.288239 106.723442,120.819427 
	C106.543839,120.802513 106.456688,120.466995 106.500992,119.997284 
z"/>
<path fill="#3E6811" opacity="1.000000" stroke="none" 
	d="
M120.252930,129.327148 
	C120.487854,136.693100 120.601135,144.523880 120.544525,152.737732 
	C120.293518,145.344513 120.212402,137.568237 120.252930,129.327148 
z"/>
</svg>